<svg xmlns="http://www.w3.org/2000/svg" width="12.86mm" height="4.8mm" viewBox="0 0 36.44 13.62"><defs><style>.cls-1{font-size:12px;font-family:LazenbyComputer-Smooth, Lazenby Computer;letter-spacing:0.09em;}.cls-1,.cls-2{fill:#fff;}.cls-3{fill:#e30613;stroke:#1d1d1b;stroke-miterlimit:10;stroke-width:0.1px;}</style></defs><g id="Warstwa_2" data-name="Warstwa 2"><g id="dfgdfg"><text class="cls-1" transform="translate(0 11.46)">KIC</text><path class="cls-2" d="M34.36,11.66a3,3,0,0,0,1.5-.84,2.09,2.09,0,0,0,.57-1.59,2.82,2.82,0,0,0-.76-1.53A6.28,6.28,0,0,0,33,5.86a.31.31,0,0,1-.15-.08.53.53,0,0,1-.1-.2,13.36,13.36,0,0,0-1.28-3.43A4.55,4.55,0,0,0,28.75,0a.11.11,0,0,0-.13.13,38.7,38.7,0,0,0,.88,3.78.11.11,0,0,1-.17.12L27,1.85a3.48,3.48,0,0,0-.48-.38,2.73,2.73,0,0,0-1-.41c-.09,0-.25-.1-.26,0a3,3,0,0,0,.1.59,16.63,16.63,0,0,0,.92,3.09A6.71,6.71,0,0,0,28.12,7.3c.49.39,1,.69,1.53,1.08a1.46,1.46,0,0,1,.64,1c0,.52-.4,1.08.21,1.51a1.06,1.06,0,0,0,.33.14l2.24.55a2.66,2.66,0,0,0,1.28.09"/><circle class="cls-3" cx="34.02" cy="7.84" r="0.63"/></g></g></svg>