<svg width="63" height="66" viewBox="0 0 63 66" fill="none" xmlns="http://www.w3.org/2000/svg">
<path d="M51.2695 64.9425C54.4139 64.2098 57.446 62.6316 59.692 60.2644C61.938 57.8972 63.2294 54.5718 62.8925 51.3028C62.6118 48.0338 60.7588 45.1594 58.6251 42.6794C54.5262 37.945 49.192 34.3379 43.2963 32.2525C43.0155 32.1397 42.6786 32.0834 42.454 31.8579C42.2856 31.6888 42.0048 31.1252 41.8925 30.7307C40.0957 24.08 38.2428 17.2601 34.6492 11.3421C31.0556 5.42411 26.1145 0.802414 19.7695 -0.775724C19.3203 -0.888449 18.9273 -0.493914 19.0396 -0.0430174C20.1064 4.80412 21.6225 14.0475 23.9808 21.2619C24.2054 21.8818 23.4754 22.3327 22.9701 21.8818L9.77488 9.65126C8.93263 8.86219 8.03424 8.12949 7.07969 7.5095C5.1706 6.26954 3.42996 5.59319 1.40857 5.19866C0.903219 5.08593 0.00482351 4.63504 0.00482351 5.14229C-0.0513262 5.98773 0.397872 7.62223 0.566321 8.46766C1.85776 14.3857 3.26151 20.3037 5.67595 25.8835C8.09039 31.4634 11.5155 36.6487 16.2321 40.425C18.9834 42.6231 22.0717 44.3139 24.823 46.5121C26.6198 47.9211 28.3043 49.7811 28.4727 52.0919C28.6412 55.0227 26.1706 58.179 29.6519 60.6026C30.2134 60.9971 30.831 61.2226 31.5048 61.3917C35.7161 62.4062 39.8711 63.4771 44.0824 64.4916C46.4407 65.0552 48.9112 65.6188 51.2134 64.9988" fill="white"/>
<path d="M46.8101 45.8574C48.7638 45.8574 50.3476 44.2677 50.3476 42.3066C50.3476 40.3456 48.7638 38.7558 46.8101 38.7558C44.8565 38.7558 43.2727 40.3456 43.2727 42.3066C43.2727 44.2677 44.8565 45.8574 46.8101 45.8574Z" fill="#E30613" stroke="#1D1D1B" stroke-width="0.1" stroke-miterlimit="10"/>
</svg>
